<svg width="27" height="28" viewBox="0 0 27 28" fill="none" xmlns="http://www.w3.org/2000/svg">
<g clip-path="url(#clip0)">
<path d="M13.5103 -0.000117003C6.054 -0.00662482 0.00615821 6.25657 -0.000117184 13.9891C-0.00639258 21.7215 6.03312 27.9934 13.4894 27.9999C20.9448 27.9934 26.9884 21.7313 26.9999 13.9999C26.9999 6.27172 20.9625 0.00639081 13.5103 -0.000117003ZM13.4894 25.6702C7.27443 25.6702 2.23598 20.4451 2.23598 13.9999C2.23598 7.55469 7.27443 2.32963 13.4894 2.32963C19.7023 2.33613 24.7366 7.55688 24.7429 13.9999C24.7429 20.4451 19.7045 25.6702 13.4894 25.6702Z" fill="url(#paint0_linear)"/>
<path d="M17.1361 13.3173C18.0389 12.7896 18.5268 11.7331 18.3586 10.6733C18.1496 9.03713 16.2689 8.41944 14.7851 8.28945V5.82971H13.3222V8.26779H12.34V5.82971H10.8772V8.26779H7.93054V9.83902H9.02768C9.5188 9.83902 9.75911 9.99072 9.75911 10.4025V17.1532C9.75911 17.7167 9.48742 17.8901 9.19485 17.8901H8.07683V19.4938H10.9189V21.9861H12.3922V19.4938H13.3744V21.9861H14.8059V19.4938H15.1194C18.1287 19.4938 19.1318 17.966 19.1318 15.8855C19.1078 14.6588 18.2875 13.6034 17.1361 13.3173ZM12.34 9.93652H13.3849C14.1163 9.93652 15.5583 10.0666 15.5583 11.3019C15.6084 12.1081 15.0452 12.8146 14.273 12.9164H12.34V9.93652ZM13.9596 17.7383V17.7275H12.34V14.4767H14.2208C14.6597 14.4767 16.3106 14.6284 16.3106 15.8421C16.3106 17.0557 15.5269 17.7383 13.9596 17.7383Z" fill="url(#paint1_linear)"/>
</g>
<defs>
<linearGradient id="paint0_linear" x1="14.8499" y1="-4.40753" x2="16.488" y2="45.1901" gradientUnits="userSpaceOnUse">
<stop stop-color="#FD749B"/>
<stop offset="1" stop-color="#281AC8"/>
</linearGradient>
<linearGradient id="paint1_linear" x1="14.0912" y1="3.28658" x2="15.4045" y2="31.876" gradientUnits="userSpaceOnUse">
<stop stop-color="#FD749B"/>
<stop offset="1" stop-color="#281AC8"/>
</linearGradient>
<clipPath id="clip0">
<rect width="27" height="28" fill="white"/>
</clipPath>
</defs>
</svg>
