<?xml version="1.0"?>
<svg xmlns="http://www.w3.org/2000/svg" xmlns:xlink="http://www.w3.org/1999/xlink" version="1.1" id="Capa_1" x="0px" y="0px" viewBox="0 0 511.738 511.738" style="enable-background:new 0 0 511.738 511.738;" xml:space="preserve" width="512px" height="512px" class=""><g><g>
	<g>
		<g>
			<polygon points="238.347,357.827 275.864,298.594 238.347,317.132    " data-original="#000000" class="active-path" data-old_color="#000000" fill="#B355AB"/>
			<polygon points="220.692,357.827 220.692,317.132 183.175,298.594    " data-original="#000000" class="active-path" data-old_color="#000000" fill="#B355AB"/>
			<polygon points="238.347,153.91 238.347,194.605 275.864,213.143    " data-original="#000000" class="active-path" data-old_color="#000000" fill="#B355AB"/>
			<polygon points="178.849,234.947 229.52,259.929 280.19,234.947 229.52,209.965    " data-original="#000000" class="active-path" data-old_color="#000000" fill="#B355AB"/>
			<path d="M286.546,478.236c101.523-26.047,172.507-117.556,172.491-222.367C459.271,129.99,357.866,27.52,231.991,26.44     c-1.059-0.088-1.589-0.088-2.119-0.088h-0.353C103.248,26.33,0.683,128.326,0.003,254.595s100.78,229.364,227.044,230.703     c1.324,0.088,1.854,0.088,2.472,0.088c16.986,0.027,33.921-1.839,50.494-5.561C282.22,479.383,284.427,478.765,286.546,478.236z      M337.304,437.981c-1.692,1.612-3.93,2.527-6.268,2.56c-0.592-0.02-1.183-0.079-1.767-0.177     c-0.553-0.096-1.088-0.274-1.587-0.529l-0.003-0.001c-0.561-0.193-1.095-0.46-1.586-0.793c-0.444-0.353-0.884-0.707-1.323-1.06     c-1.612-1.692-2.527-3.931-2.56-6.268c0.012-1.153,0.251-2.292,0.703-3.353c0.405-1.092,1.038-2.085,1.857-2.913     c0.827-0.817,1.819-1.449,2.909-1.854c0.5-0.257,1.036-0.436,1.591-0.53c2.908-0.594,5.921,0.3,8.035,2.383     c0.816,0.83,1.448,1.823,1.854,2.914c0.495,1.047,0.737,2.196,0.707,3.353C339.829,434.05,338.915,436.288,337.304,437.981z      M379.321,405.671c-0.807,0.824-1.765,1.484-2.823,1.944c-1.098,0.424-2.267,0.634-3.444,0.616     c-2.321,0.023-4.552-0.902-6.177-2.56c-1.688-1.65-2.643-3.908-2.651-6.268c0.009-2.333,0.966-4.563,2.651-6.177     c3.469-3.358,8.976-3.358,12.444,0c1.658,1.625,2.583,3.855,2.56,6.177C381.905,401.751,380.982,404.01,379.321,405.671z      M411.633,363.654c-3.481,3.414-9.054,3.414-12.534,0h-0.001c-1.627-1.683-2.544-3.927-2.56-6.268     c0-4.875,3.952-8.828,8.828-8.828c4.875,0,8.828,3.952,8.828,8.828C414.176,359.727,413.26,361.971,411.633,363.654z      M431.847,314.658c-3.447,3.414-9.001,3.414-12.448,0c-1.647-1.669-2.567-3.922-2.56-6.268c-0.023-2.321,0.902-4.552,2.56-6.176     c3.47-3.358,8.978-3.358,12.448,0c0.851,0.783,1.515,1.748,1.94,2.823C435.214,308.334,434.44,312.171,431.847,314.658z      M441.382,255.869c0.023,2.348-0.9,4.607-2.56,6.267c-1.661,1.661-3.919,2.583-6.267,2.56c-1.155-0.014-2.296-0.254-3.358-0.707     c-1.068-0.449-2.051-1.076-2.909-1.854c-3.414-3.481-3.414-9.054,0-12.535c0.857-0.78,1.841-1.409,2.909-1.858     c3.29-1.375,7.084-0.643,9.625,1.858C440.433,251.294,441.347,253.532,441.382,255.869z M419.399,197.076     c1.632-1.686,3.878-2.638,6.224-2.638s4.592,0.952,6.224,2.638c0.872,0.8,1.538,1.8,1.94,2.914c0.455,1.06,0.695,2.2,0.707,3.353     c0,4.875-3.952,8.828-8.828,8.828c-4.875,0-8.828-3.952-8.828-8.828C416.832,200.998,417.753,198.745,419.399,197.076z      M399.098,148.084c2.995-3.055,7.734-3.562,11.308-1.212c3.575,2.351,4.986,6.902,3.368,10.863s-5.812,6.223-10.01,5.399     c-4.198-0.824-7.226-4.504-7.226-8.782C396.567,152.014,397.482,149.774,399.098,148.084z M366.877,106.063L366.877,106.063     c3.505-3.268,8.94-3.268,12.444,0c1.646,1.67,2.567,3.923,2.56,6.268c0.023,2.323-0.902,4.555-2.56,6.181     c-0.783,0.851-1.748,1.515-2.823,1.94c-1.092,0.455-2.261,0.695-3.444,0.707c-4.825-0.119-8.709-4.002-8.828-8.828     C364.235,109.97,365.19,107.712,366.877,106.063z M324.769,73.752L324.769,73.752c0.44-0.353,0.879-0.702,1.323-1.056     c0.491-0.334,1.025-0.602,1.586-0.797c0.501-0.253,1.037-0.432,1.591-0.53c2.906-0.547,5.897,0.34,8.035,2.383     c3.414,3.482,3.414,9.056,0,12.539c-1.67,1.645-3.923,2.564-6.268,2.556c-0.594,0.024-1.189-0.034-1.767-0.172     c-0.553-0.098-1.089-0.277-1.59-0.53c-0.561-0.195-1.095-0.463-1.586-0.797c-0.463-0.324-0.905-0.677-1.324-1.056     C321.355,82.808,321.355,77.235,324.769,73.752z M275.864,53.537L275.864,53.537c0.784-0.85,1.749-1.513,2.823-1.939     c3.309-1.31,7.078-0.55,9.621,1.94c1.658,1.627,2.582,3.858,2.56,6.181c0.029,0.595-0.031,1.19-0.177,1.767     c-0.104,0.569-0.251,1.13-0.44,1.677c-0.242,0.529-0.538,1.032-0.884,1.5c-0.297,0.484-0.653,0.928-1.06,1.323     c-2.553,2.47-6.309,3.229-9.62,1.944c-1.057-0.461-2.015-1.121-2.823-1.944c-0.409-0.418-0.793-0.86-1.151-1.323     c-0.35-0.45-0.619-0.957-0.793-1.5c-0.254-0.531-0.433-1.096-0.53-1.677c-0.101-0.584-0.16-1.175-0.177-1.767     C273.226,57.384,274.182,55.154,275.864,53.537z M221.395,49.477c0.427-1.08,1.058-2.068,1.857-2.91     c2.536-2.508,6.333-3.242,9.621-1.858c1.07,0.449,2.056,1.077,2.914,1.858c0.797,0.843,1.426,1.831,1.854,2.909     c0.453,1.062,0.693,2.203,0.706,3.358c-0.035,2.337-0.949,4.574-2.56,6.268c-0.86,0.778-1.845,1.405-2.914,1.854     c-1.061,0.452-2.2,0.692-3.354,0.706c-2.348,0.023-4.607-0.9-6.267-2.56s-2.583-3.919-2.56-6.267     C220.704,51.68,220.943,50.539,221.395,49.477z M170.726,53.537L170.726,53.537c3.49-3.308,8.958-3.308,12.448,0     c0.448,0.381,0.835,0.829,1.147,1.328c0.316,0.471,0.582,0.974,0.793,1.5c0.23,0.541,0.407,1.102,0.53,1.677     c0.104,0.553,0.163,1.114,0.177,1.677c-0.008,2.359-0.962,4.616-2.646,6.268c-1.627,1.658-3.858,2.583-6.181,2.56     c-2.345,0.006-4.598-0.914-6.268-2.56c-0.823-0.808-1.483-1.766-1.944-2.823c-0.424-1.098-0.634-2.267-0.616-3.444     C168.144,57.396,169.068,55.164,170.726,53.537z M119.877,76.666c0.449-1.07,1.077-2.055,1.857-2.914     c0.44-0.353,0.879-0.703,1.323-1.056c0.491-0.334,1.025-0.602,1.586-0.797c0.501-0.253,1.037-0.432,1.591-0.53     c1.721-0.359,3.51-0.174,5.121,0.53c2.217,0.804,3.963,2.55,4.767,4.767c0.495,1.047,0.737,2.196,0.707,3.353     c-0.019,2.341-0.935,4.586-2.56,6.272c-0.879,0.775-1.859,1.428-2.914,1.94c-1.066,0.426-2.206,0.635-3.353,0.616     c-0.594,0.028-1.19-0.03-1.767-0.172c-0.541-0.108-1.072-0.256-1.591-0.444c-0.547-0.261-1.077-0.556-1.586-0.884     c-0.483-0.295-0.928-0.65-1.323-1.056l-1.06-1.328c-0.335-0.491-0.603-1.024-0.797-1.586c-0.254-0.501-0.431-1.037-0.526-1.591     c-0.104-0.584-0.163-1.175-0.177-1.767C119.187,78.866,119.426,77.727,119.877,76.666z M79.714,106.063     c1.634-1.683,3.879-2.632,6.224-2.632c2.345,0,4.591,0.95,6.224,2.632c1.691,1.629,2.647,3.876,2.647,6.224     c0,2.348-0.956,4.595-2.647,6.224c-0.785,0.851-1.751,1.514-2.828,1.94c-1.06,0.455-2.2,0.695-3.353,0.707     c-1.183-0.012-2.352-0.252-3.444-0.707c-1.075-0.426-2.04-1.089-2.823-1.94C76.3,115.064,76.3,109.51,79.714,106.063     L79.714,106.063z M18.36,259.222L18.36,259.222c-0.936-2.139-0.936-4.573,0-6.712c0.427-1.08,1.058-2.067,1.857-2.909     c3.539-3.267,8.995-3.267,12.534,0c0.778,0.858,1.405,1.842,1.854,2.909c0.943,2.138,0.943,4.573,0,6.711     c-0.449,1.069-1.076,2.054-1.854,2.914c-3.481,3.414-9.054,3.414-12.534,0C19.419,261.291,18.788,260.303,18.36,259.222z      M39.636,314.657c-2.216,2.257-5.473,3.151-8.531,2.342c-3.058-0.809-5.446-3.196-6.257-6.254s0.083-6.315,2.339-8.532     c3.47-3.358,8.978-3.358,12.448,0c1.658,1.625,2.583,3.855,2.56,6.177C42.22,310.738,41.297,312.997,39.636,314.657z      M41.58,206.696L41.58,206.696c-0.482,1.072-1.139,2.057-1.944,2.913c-2.09,2.083-5.083,2.982-7.974,2.396     c-2.892-0.586-5.299-2.579-6.414-5.31c-0.453-1.061-0.693-2.2-0.707-3.353c0.023-1.182,0.263-2.349,0.707-3.444     c0.428-1.074,1.091-2.039,1.94-2.823c2.095-2.048,5.063-2.934,7.938-2.37c2.875,0.564,5.288,2.506,6.454,5.194     c0.416,1.1,0.625,2.268,0.616,3.444C42.214,204.49,42.004,205.63,41.58,206.696z M47.403,148.084     c2.525-2.548,6.341-3.315,9.654-1.939c3.313,1.376,5.464,4.62,5.441,8.207c-0.015,0.591-0.072,1.18-0.172,1.763     c-0.098,0.553-0.277,1.089-0.531,1.59c-0.176,0.543-0.446,1.05-0.797,1.5c-0.303,0.506-0.657,0.98-1.056,1.414     c-1.686,1.625-3.93,2.541-6.272,2.56c-2.336-0.036-4.574-0.95-6.268-2.56c-0.353-0.444-0.703-0.884-1.056-1.414     c-0.351-0.45-0.621-0.957-0.797-1.5c-0.253-0.501-0.432-1.037-0.53-1.591c-0.101-0.583-0.16-1.172-0.177-1.763     C44.877,152.015,45.791,149.777,47.403,148.084z M59.942,363.654c-1.686,1.625-3.93,2.541-6.272,2.56     c-2.348,0.023-4.607-0.9-6.267-2.56s-2.583-3.919-2.56-6.267c0.014-1.155,0.254-2.296,0.707-3.358     c0.449-1.068,1.076-2.051,1.854-2.909c2.143-2.034,5.129-2.919,8.034-2.383c0.554,0.095,1.09,0.272,1.591,0.526     c0.562,0.194,1.095,0.462,1.586,0.797c0.464,0.325,0.907,0.679,1.327,1.06c0.778,0.858,1.404,1.842,1.854,2.909     c0.494,1.049,0.735,2.199,0.703,3.358C62.464,359.722,61.551,361.96,59.942,363.654z M92.161,405.671     c-0.809,0.823-1.769,1.483-2.828,1.944c-1.066,0.424-2.206,0.634-3.353,0.616c-1.177,0.017-2.346-0.192-3.444-0.616     c-1.057-0.461-2.016-1.121-2.823-1.944c-3.414-3.446-3.414-8.998,0-12.444c0.783-0.852,1.748-1.516,2.823-1.944     c2.18-0.884,4.618-0.884,6.797,0c1.076,0.428,2.043,1.092,2.828,1.944c1.691,1.628,2.647,3.874,2.647,6.222     C94.808,401.796,93.852,404.043,92.161,405.671L92.161,405.671z M136.123,435.067L136.123,435.067     c-0.804,2.218-2.55,3.964-4.767,4.767c-1.061,0.453-2.2,0.693-3.353,0.707c-2.337-0.033-4.576-0.947-6.268-2.56     c-0.78-0.859-1.409-1.844-1.858-2.914c-0.451-1.061-0.69-2.201-0.702-3.354c0.033-2.337,0.947-4.576,2.56-6.268     c2.541-2.493,6.311-3.255,9.621-1.944c1.056,0.512,2.036,1.166,2.914,1.945c1.625,1.684,2.542,3.927,2.56,6.268     C136.86,432.872,136.618,434.02,136.123,435.067z M183.175,458.196c-1.617,1.682-3.847,2.637-6.181,2.646     c-2.355-0.026-4.606-0.976-6.268-2.646c-1.658-1.627-2.583-3.858-2.56-6.181c-0.017-1.177,0.192-2.346,0.616-3.444     c1.166-2.688,3.579-4.63,6.454-5.194c2.875-0.564,5.843,0.323,7.938,2.371c0.849,0.785,1.512,1.749,1.94,2.823     c0.446,1.094,0.686,2.262,0.707,3.444C185.812,454.349,184.857,456.579,183.175,458.196z M235.787,465.171L235.787,465.171     c-0.86,0.777-1.845,1.404-2.914,1.853c-1.061,0.453-2.2,0.693-3.354,0.707c-2.348,0.023-4.607-0.9-6.267-2.56     s-2.583-3.919-2.56-6.267c0.012-1.154,0.251-2.295,0.703-3.358c0.449-1.069,1.077-2.053,1.857-2.91     c2.557-2.467,6.329-3.196,9.621-1.858c1.07,0.449,2.056,1.077,2.914,1.858c0.797,0.843,1.426,1.831,1.854,2.909     c0.453,1.062,0.693,2.203,0.706,3.358C238.312,461.24,237.398,463.478,235.787,465.171z M229.52,432.42     c-0.326,0.007-0.652-0.022-0.971-0.088h-0.971c-97.117-1.046-175.143-80.353-174.609-177.474     c0.534-97.121,79.429-175.564,176.551-175.542c0.265,0,1.148,0.088,1.412,0.088h0.53c11.843,0.085,23.646,1.386,35.223,3.884     c80.012,17.235,137.691,87.197,139.352,169.027s-53.132,154.075-132.378,174.542c-2.207,0.53-3.708,0.971-5.208,1.324     C255.668,431.021,242.612,432.442,229.52,432.42z M275.865,458.196c-1.683-1.617-2.64-3.847-2.651-6.181     c0.01-2.36,0.965-4.617,2.651-6.268c1.632-1.684,3.877-2.634,6.222-2.634c2.345,0,4.59,0.95,6.222,2.634l0,0     c1.661,1.66,2.584,3.919,2.56,6.268c0.029,0.565-0.031,1.13-0.177,1.677c-0.092,0.572-0.239,1.133-0.44,1.677     c-0.243,0.53-0.539,1.034-0.884,1.504c-0.252,0.514-0.614,0.965-1.06,1.323c-2.487,2.593-6.323,3.366-9.621,1.94     C277.612,459.711,276.647,459.048,275.865,458.196z" data-original="#000000" class="active-path" data-old_color="#000000" fill="#B355AB"/>
			<polygon points="220.692,153.91 183.175,213.143 220.692,194.605    " data-original="#000000" class="active-path" data-old_color="#000000" fill="#B355AB"/>
			<path d="M388.388,252.936c-1.367-73.727-53.253-136.835-125.323-152.433c-10.135-2.133-20.452-3.286-30.808-3.443h-2.295     c-0.265,0-1.059-0.088-1.324-0.088c-87.027,0.466-157.48,70.866-158.012,157.892s69.055,158.282,156.07,159.812h2.383     c0.265,0,0.53,0.088,0.706,0.088h0.618c0.619,0.015,1.239-0.015,1.854-0.088c10.866-0.154,21.69-1.396,32.309-3.708     c1.324-0.353,2.737-0.707,4.237-1.059C340.245,391.652,389.755,326.662,388.388,252.936z M307.555,281.469l-70.621,111.581     c-1.611,2.539-4.409,4.078-7.415,4.078s-5.805-1.539-7.415-4.078l-70.621-111.581c-2.109-3.327-1.751-7.65,0.876-10.585     c2.627-2.935,6.884-3.768,10.423-2.039l66.737,32.927l66.737-32.927c3.539-1.729,7.796-0.896,10.423,2.039     C309.306,273.819,309.664,278.142,307.555,281.469z M308.88,235.389c0,0.353-0.088,0.618-0.088,0.971     c-0.106,0.54-0.253,1.072-0.441,1.589c-0.088,0.353-0.265,0.618-0.353,0.971c-0.272,0.504-0.598,0.978-0.971,1.412     c-0.086,0.196-0.206,0.375-0.353,0.53c0,0.088-0.177,0.088-0.177,0.177c-0.706,0.761-1.543,1.389-2.472,1.854l-16.508,8.21     l-54.113,26.659c-2.456,1.177-5.313,1.177-7.768,0l-70.621-34.869c-0.088-0.088-0.177-0.088-0.265-0.177     c-0.265-0.088-0.441-0.353-0.706-0.53c-0.526-0.273-1.003-0.631-1.412-1.06l-0.265-0.265c-0.147-0.155-0.267-0.334-0.353-0.53     c-0.373-0.435-0.699-0.908-0.971-1.412c-0.088-0.353-0.265-0.617-0.353-0.971c-0.188-0.517-0.336-1.049-0.441-1.589     c0-0.353-0.088-0.618-0.088-0.971c0-0.177-0.088-0.265-0.088-0.441c0.015-0.446,0.074-0.89,0.177-1.324     c0.088-0.265,0.088-0.618,0.177-0.883c0.192-0.87,0.52-1.704,0.971-2.472h0.088l70.621-111.581     c0.088-0.177,0.265-0.177,0.441-0.353c1.583-2.297,4.184-3.68,6.974-3.707c2.799-0.011,5.418,1.381,6.974,3.708     c0.177,0.177,0.353,0.177,0.441,0.353l70.621,111.581h0.088c0.452,0.768,0.779,1.602,0.971,2.472     c0.088,0.265,0.088,0.618,0.177,0.883c0.102,0.435,0.161,0.878,0.177,1.324C308.968,235.124,308.88,235.212,308.88,235.389z" data-original="#000000" class="active-path" data-old_color="#000000" fill="#B355AB"/>
			<path d="M365.818,461.905c-35.44,23.666-76.474,37.608-118.996,40.43c5.385,0.441,11.299,0.706,18.008,0.706     c76.972-0.01,149.537-35.917,196.237-97.103h-35.31C409.027,427.795,388.769,446.711,365.818,461.905z" data-original="#000000" class="active-path" data-old_color="#000000" fill="#B355AB"/>
			<path d="M438.027,388.283h35.31c10.657-16.535,19.226-34.325,25.512-52.966h-35.31     C457.253,353.957,448.684,371.748,438.027,388.283z" data-original="#000000" class="active-path" data-old_color="#000000" fill="#B355AB"/>
			<path d="M468.924,317.662h35.31c4.434-17.327,6.95-35.089,7.503-52.966h-35.31C475.874,282.573,473.358,300.335,468.924,317.662z     " data-original="#000000" class="active-path" data-old_color="#000000" fill="#B355AB"/>
			<path d="M476.427,247.041h35.31c-0.553-17.877-3.069-35.639-7.503-52.966h-35.31     C473.358,211.403,475.874,229.164,476.427,247.041z" data-original="#000000" class="active-path" data-old_color="#000000" fill="#B355AB"/>
			<path d="M463.539,176.421h35.31c-6.286-18.64-14.855-36.431-25.512-52.966h-35.31C448.684,139.99,457.253,157.78,463.539,176.421     z" data-original="#000000" class="active-path" data-old_color="#000000" fill="#B355AB"/>
			<path d="M425.757,105.8h35.31C414.367,44.613,341.802,8.706,264.83,8.696c-6.709,0-12.535,0.265-17.92,0.706     c42.494,2.823,83.5,16.765,118.908,40.43C388.769,65.027,409.027,83.942,425.757,105.8z" data-original="#000000" class="active-path" data-old_color="#000000" fill="#B355AB"/>
		</g>
	</g>
</g></g> </svg>
