<svg width="157" height="42" viewBox="0 0 157 42" fill="none" xmlns="http://www.w3.org/2000/svg">
<path d="M33.373 36.3138H44.4547C46.8415 36.3138 48.7169 34.2876 48.7169 31.9238C48.7169 29.56 46.8415 27.5339 44.4547 27.5339C43.6022 27.5339 42.7498 27.5339 41.8974 27.5339C45.3072 20.2737 43.6022 4.23364 28.2584 4.23364C18.0292 4.23364 12.9146 10.1431 12.9146 22.131H11.2097C7.45902 22.131 4.39026 25.339 4.39026 29.2223C4.39026 33.1058 7.45902 36.3138 11.2097 36.3138H19.7341H33.373Z" stroke="url(#paint0_linear)" stroke-width="3" stroke-linecap="round" stroke-linejoin="round"/>
<g clip-path="url(#clip0)">
<path d="M30.2394 24.2703L23.6608 25.7578L35.275 30.5378L33.0512 18.0942L30.2394 24.2703Z" fill="url(#paint1_linear)"/>
<path d="M31.1352 16.7655L20.8233 12.5531L22.7696 23.6073L25.2827 18.1034L31.1352 16.7655Z" fill="url(#paint2_linear)"/>
<path d="M23.929 24.2995L29.2827 23.0793L31.5841 18.0469L26.2242 19.2725L23.929 24.2995Z" fill="url(#paint3_linear)"/>
</g>
<path d="M65.7715 28.9893H58.459V33.9404H67.041V37H54.6504V18.5156H67.0156V21.6006H58.459V26.0059H65.7715V28.9893ZM83.4434 21.6006H77.7812V37H73.9727V21.6006H68.3867V18.5156H83.4434V21.6006ZM100.671 37H96.8623V29.0781H89.4355V37H85.627V18.5156H89.4355V26.0059H96.8623V18.5156H100.671V37ZM115.131 29.4463H107.818V37H104.01V18.5156H116.045V21.6006H107.818V26.374H115.131V29.4463ZM122.062 33.9404H130.149V37H118.254V18.5156H122.062V33.9404ZM136.396 37H132.587V18.5156H136.396V37ZM146.78 24.8887L150.246 18.5156H154.626L149.243 27.6816L154.766 37H150.335L146.78 30.5254L143.226 37H138.795L144.317 27.6816L138.935 18.5156H143.314L146.78 24.8887Z" fill="#5C5C5C"/>
<defs>
<linearGradient id="paint0_linear" x1="28.7699" y1="-0.816005" x2="30.0804" y2="56.0407" gradientUnits="userSpaceOnUse">
<stop stop-color="#FD749B"/>
<stop offset="1" stop-color="#281AC8"/>
</linearGradient>
<linearGradient id="paint1_linear" x1="27.7364" y1="20.1872" x2="40.5487" y2="34.9884" gradientUnits="userSpaceOnUse">
<stop stop-color="#FD749B"/>
<stop offset="1" stop-color="#281AC8"/>
</linearGradient>
<linearGradient id="paint2_linear" x1="20.2739" y1="11.0115" x2="31.6321" y2="24.1371" gradientUnits="userSpaceOnUse">
<stop stop-color="#FD749B"/>
<stop offset="1" stop-color="#281AC8"/>
</linearGradient>
<linearGradient id="paint3_linear" x1="26.1288" y1="18.3582" x2="31.7072" y2="24.9782" gradientUnits="userSpaceOnUse">
<stop stop-color="#FD749B"/>
<stop offset="1" stop-color="#281AC8"/>
</linearGradient>
<clipPath id="clip0">
<rect width="12.7044" height="24.1647" fill="white" transform="matrix(0.774745 -0.632274 0.626333 0.779555 15.5601 15.92)"/>
</clipPath>
</defs>
</svg>
