<svg width="100" height="100" viewBox="0 0 100 100" fill="none" xmlns="http://www.w3.org/2000/svg">
<g clip-path="url(#clip0)">
<path d="M48.2706 20.7537C55.9047 20.7537 63.0982 24.2814 68.3699 29.796V29.8123C68.3699 27.1641 70.0792 25.1609 72.4417 25.1609H73.0416C76.7696 25.1609 77.5165 28.8253 77.5165 29.9817L77.5321 71.1378C77.2728 73.8349 80.2039 75.229 81.832 73.4961C88.1599 66.7111 95.744 38.581 77.8915 22.2944C61.242 7.09257 38.8959 9.60396 27.015 18.1381C14.3873 27.2325 6.31564 47.3204 14.156 66.1997C22.7182 86.7827 47.1956 92.9227 61.7639 86.799C69.1386 83.6948 72.5385 94.0726 64.8732 97.4699C53.3204 102.607 21.1245 102.082 6.08752 74.9391C-4.07153 56.6037 -3.53403 24.3498 23.4213 7.63979C44.0238 -5.15167 71.2073 -1.60771 87.5943 16.2261C104.719 34.8872 103.728 69.8023 87.0099 83.3755C79.4383 89.5482 68.1949 83.5449 68.2762 74.5515L68.1918 71.6199C62.9201 77.0629 55.9047 80.255 48.2706 80.255C33.1679 80.255 19.8715 66.3919 19.8715 50.6656C19.8715 34.7699 33.1679 20.7602 48.2706 20.7602V20.7537ZM67.2668 49.5288C66.695 38.0077 58.4921 31.0696 48.5799 31.0696H48.2049C36.7803 31.0696 30.4336 40.4507 30.4336 51.0858C30.4336 63.0108 38.099 70.5417 48.1581 70.5417C59.3858 70.5417 66.7575 61.9783 67.2949 51.848L67.2668 49.5288Z" fill="url(#paint0_linear)"/>
</g>
<defs>
<linearGradient id="paint0_linear" x1="50" y1="-2.62373e-07" x2="50" y2="100" gradientUnits="userSpaceOnUse">
<stop stop-color="#0088FE"/>
<stop offset="1" stop-color="#26D7D4"/>
</linearGradient>
<clipPath id="clip0">
<rect width="100" height="100" fill="white"/>
</clipPath>
</defs>
</svg>
