<svg width="283" height="566" viewBox="0 0 283 566" fill="none" xmlns="http://www.w3.org/2000/svg">
<path fill-rule="evenodd" clip-rule="evenodd" d="M41.2031 0H241.58C263.138 0 280.615 17.5368 280.615 39.1695V526.83C280.615 548.463 263.138 566 241.58 566H41.2031C19.6449 566 2.16858 548.463 2.16858 526.83V39.1695C2.16858 17.5368 19.6449 0 41.2031 0Z" fill="#444444"/>
<path fill-rule="evenodd" clip-rule="evenodd" d="M41.8536 3.26416H240.929C261.05 3.26416 277.362 19.6318 277.362 39.8224V526.178C277.362 546.368 261.05 562.736 240.929 562.736H41.8536C21.7326 562.736 5.42139 546.368 5.42139 526.178V39.8224C5.42139 19.6318 21.7326 3.26416 41.8536 3.26416Z" fill="#141414"/>
<rect x="276.061" y="54.4023" width="4.77094" height="4.35218" fill="#141414"/>
<rect x="2.16858" y="54.4023" width="4.77088" height="4.35218" fill="#141414"/>
<rect x="276.061" y="507.028" width="4.77094" height="4.3522" fill="#141414"/>
<rect x="2.16858" y="507.028" width="4.77088" height="4.3522" fill="#141414"/>
<path fill-rule="evenodd" clip-rule="evenodd" d="M19.6263 41.5335C19.6263 28.3297 30.3055 17.626 43.4804 17.626H239.738C252.912 17.626 263.592 28.3289 263.592 41.5335V523.16C263.592 536.364 252.913 547.068 239.738 547.068H43.4804C30.3062 547.068 19.6263 536.365 19.6263 523.16V41.5335Z" fill="url(#paint0_linear)"/>
<path fill-rule="evenodd" clip-rule="evenodd" d="M112.766 26.1132C114.204 26.1132 115.369 24.9441 115.369 23.5019C115.369 22.0597 114.204 20.8906 112.766 20.8906C111.329 20.8906 110.164 22.0597 110.164 23.5019C110.164 24.9441 111.329 26.1132 112.766 26.1132Z" fill="#444444"/>
<path fill-rule="evenodd" clip-rule="evenodd" d="M173.053 27.8538C175.448 27.8538 177.39 25.9052 177.39 23.5016C177.39 21.0979 175.448 19.1494 173.053 19.1494C170.658 19.1494 168.716 21.0979 168.716 23.5016C168.716 25.9052 170.658 27.8538 173.053 27.8538Z" fill="#444444"/>
<path fill-rule="evenodd" clip-rule="evenodd" d="M127.079 21.7607H156.138C157.096 21.7607 157.873 22.5402 157.873 23.5016C157.873 24.463 157.096 25.2425 156.138 25.2425H127.079C126.121 25.2425 125.344 24.463 125.344 23.5016C125.344 22.5402 126.121 21.7607 127.079 21.7607Z" fill="#444444"/>
<path fill-rule="evenodd" clip-rule="evenodd" d="M0 117.942C0 117.462 0.465239 117.073 1.04346 117.073H2.6023V158.419H1.04346C0.467173 158.419 0 158.029 0 157.551V117.942Z" fill="#444444"/>
<path fill-rule="evenodd" clip-rule="evenodd" d="M0 169.515C0 169.035 0.465239 168.646 1.04346 168.646H2.6023V209.992H1.04346C0.467173 209.992 0 209.603 0 209.124V169.515Z" fill="#444444"/>
<path fill-rule="evenodd" clip-rule="evenodd" d="M0 77.468C0 76.9876 0.465239 76.5981 1.04346 76.5981H2.6023V99.2294H1.04346C0.467173 99.2294 0 98.8414 0 98.3596V77.468Z" fill="#444444"/>
<path fill-rule="evenodd" clip-rule="evenodd" d="M280.398 130.13H281.699C282.417 130.13 283 130.615 283 131.217V196.502C283 197.102 282.416 197.589 281.699 197.589H280.398V130.13Z" fill="#444444"/>
<path fill-rule="evenodd" clip-rule="evenodd" d="M72.4308 17.626V21.5381C72.4308 30.1825 79.4314 37.1866 88.0671 37.1866H194.933C203.568 37.1866 210.569 30.1806 210.569 21.5381V20.4522V20.2357V17.626H72.4308Z" fill="#212121"/>
<mask id="path-16-outside-1" maskUnits="userSpaceOnUse" x="120.9" y="279.375" width="78" height="14" fill="black">
<rect fill="white" x="120.9" y="279.375" width="78" height="14"/>
<path d="M121.9 287.096C121.9 285.987 122.151 284.992 122.655 284.111C123.158 283.219 123.842 282.523 124.706 282.022C125.582 281.522 126.55 281.272 127.611 281.272C128.859 281.272 129.947 281.571 130.877 282.169C131.808 282.767 132.486 283.616 132.913 284.714H131.124C130.806 284.029 130.347 283.501 129.745 283.132C129.154 282.762 128.443 282.577 127.611 282.577C126.813 282.577 126.096 282.762 125.461 283.132C124.827 283.501 124.329 284.029 123.968 284.714C123.607 285.389 123.426 286.182 123.426 287.096C123.426 287.999 123.607 288.793 123.968 289.478C124.329 290.152 124.827 290.674 125.461 291.044C126.096 291.414 126.813 291.599 127.611 291.599C128.443 291.599 129.154 291.419 129.745 291.061C130.347 290.691 130.806 290.163 131.124 289.478H132.913C132.486 290.566 131.808 291.409 130.877 292.007C129.947 292.594 128.859 292.888 127.611 292.888C126.55 292.888 125.582 292.643 124.706 292.154C123.842 291.653 123.158 290.963 122.655 290.082C122.151 289.201 121.9 288.206 121.9 287.096Z"/>
<path d="M139.059 292.937C138.216 292.937 137.45 292.746 136.761 292.366C136.082 291.985 135.546 291.447 135.152 290.751C134.769 290.044 134.578 289.228 134.578 288.303C134.578 287.39 134.775 286.585 135.169 285.889C135.574 285.182 136.121 284.643 136.81 284.274C137.499 283.893 138.271 283.703 139.124 283.703C139.978 283.703 140.749 283.893 141.438 284.274C142.128 284.643 142.669 285.176 143.063 285.873C143.468 286.569 143.671 287.379 143.671 288.303C143.671 289.228 143.463 290.044 143.047 290.751C142.642 291.447 142.089 291.985 141.389 292.366C140.689 292.746 139.912 292.937 139.059 292.937ZM139.059 291.632C139.595 291.632 140.098 291.506 140.569 291.256C141.039 291.006 141.417 290.631 141.701 290.131C141.996 289.63 142.144 289.021 142.144 288.303C142.144 287.586 142.002 286.976 141.717 286.476C141.433 285.976 141.061 285.606 140.601 285.367C140.142 285.117 139.644 284.992 139.108 284.992C138.561 284.992 138.057 285.117 137.598 285.367C137.149 285.606 136.788 285.976 136.515 286.476C136.241 286.976 136.104 287.586 136.104 288.303C136.104 289.032 136.236 289.647 136.498 290.147C136.772 290.647 137.133 291.022 137.581 291.273C138.03 291.512 138.522 291.632 139.059 291.632Z"/>
<path d="M146.406 282.398C146.121 282.398 145.881 282.3 145.684 282.104C145.487 281.908 145.388 281.669 145.388 281.386C145.388 281.103 145.487 280.864 145.684 280.668C145.881 280.472 146.121 280.375 146.406 280.375C146.679 280.375 146.909 280.472 147.095 280.668C147.292 280.864 147.391 281.103 147.391 281.386C147.391 281.669 147.292 281.908 147.095 282.104C146.909 282.3 146.679 282.398 146.406 282.398ZM147.128 283.85V292.79H145.634V283.85H147.128Z"/>
<path d="M154.056 283.686C155.15 283.686 156.036 284.018 156.715 284.682C157.393 285.334 157.732 286.28 157.732 287.52V292.79H156.255V287.732C156.255 286.841 156.031 286.161 155.582 285.693C155.133 285.214 154.521 284.975 153.744 284.975C152.956 284.975 152.327 285.22 151.856 285.709C151.397 286.199 151.167 286.911 151.167 287.847V292.79H149.673V283.85H151.167V285.122C151.462 284.665 151.862 284.312 152.365 284.062C152.879 283.811 153.443 283.686 154.056 283.686Z"/>
<path d="M165.9 286.933C166.316 286.998 166.693 287.167 167.032 287.439C167.383 287.711 167.656 288.048 167.853 288.45C168.061 288.853 168.165 289.282 168.165 289.739C168.165 290.316 168.017 290.838 167.722 291.305C167.426 291.762 166.994 292.126 166.425 292.398C165.867 292.659 165.205 292.79 164.439 292.79H160.172V281.419H164.275C165.052 281.419 165.714 281.549 166.261 281.81C166.808 282.06 167.218 282.403 167.492 282.838C167.766 283.273 167.902 283.763 167.902 284.306C167.902 284.981 167.716 285.541 167.344 285.987C166.983 286.422 166.502 286.737 165.9 286.933ZM161.665 286.329H164.177C164.877 286.329 165.418 286.166 165.801 285.84C166.184 285.514 166.376 285.062 166.376 284.486C166.376 283.909 166.184 283.458 165.801 283.132C165.418 282.805 164.866 282.642 164.144 282.642H161.665V286.329ZM164.308 291.566C165.052 291.566 165.632 291.392 166.048 291.044C166.463 290.696 166.671 290.212 166.671 289.592C166.671 288.961 166.452 288.467 166.015 288.108C165.577 287.738 164.992 287.553 164.259 287.553H161.665V291.566H164.308Z"/>
<path d="M169.679 288.287C169.679 287.373 169.866 286.574 170.238 285.889C170.61 285.193 171.118 284.654 171.764 284.274C172.42 283.893 173.148 283.703 173.947 283.703C174.735 283.703 175.418 283.871 175.998 284.208C176.578 284.546 177.011 284.97 177.295 285.481V283.85H178.805V292.79H177.295V291.126C177 291.648 176.556 292.083 175.966 292.431C175.386 292.768 174.707 292.937 173.93 292.937C173.132 292.937 172.409 292.741 171.764 292.349C171.118 291.958 170.61 291.409 170.238 290.702C169.866 289.995 169.679 289.19 169.679 288.287ZM177.295 288.303C177.295 287.629 177.158 287.042 176.885 286.541C176.611 286.041 176.239 285.66 175.769 285.399C175.309 285.127 174.8 284.992 174.242 284.992C173.684 284.992 173.175 285.122 172.716 285.383C172.256 285.644 171.89 286.025 171.616 286.525C171.343 287.025 171.206 287.613 171.206 288.287C171.206 288.972 171.343 289.57 171.616 290.082C171.89 290.582 172.256 290.968 172.716 291.24C173.175 291.501 173.684 291.632 174.242 291.632C174.8 291.632 175.309 291.501 175.769 291.24C176.239 290.968 176.611 290.582 176.885 290.082C177.158 289.57 177.295 288.978 177.295 288.303Z"/>
<path d="M184.513 292.937C183.824 292.937 183.206 292.823 182.658 292.594C182.111 292.355 181.679 292.029 181.362 291.615C181.044 291.191 180.869 290.707 180.837 290.163H182.379C182.423 290.609 182.631 290.974 183.003 291.256C183.386 291.539 183.884 291.681 184.497 291.681C185.066 291.681 185.514 291.555 185.842 291.305C186.171 291.055 186.335 290.74 186.335 290.359C186.335 289.967 186.16 289.679 185.81 289.494C185.46 289.299 184.918 289.108 184.185 288.923C183.517 288.749 182.97 288.575 182.544 288.401C182.128 288.216 181.767 287.95 181.46 287.602C181.165 287.243 181.017 286.775 181.017 286.199C181.017 285.742 181.154 285.323 181.427 284.943C181.701 284.562 182.089 284.263 182.593 284.045C183.096 283.817 183.671 283.703 184.316 283.703C185.312 283.703 186.116 283.953 186.729 284.453C187.342 284.953 187.67 285.639 187.714 286.509H186.22C186.187 286.041 185.996 285.666 185.646 285.383C185.306 285.1 184.847 284.959 184.267 284.959C183.731 284.959 183.304 285.073 182.987 285.302C182.669 285.53 182.511 285.829 182.511 286.199C182.511 286.492 182.604 286.737 182.79 286.933C182.987 287.118 183.227 287.27 183.512 287.39C183.807 287.499 184.212 287.624 184.726 287.765C185.372 287.939 185.897 288.113 186.302 288.287C186.707 288.45 187.052 288.7 187.336 289.038C187.632 289.375 187.785 289.815 187.796 290.359C187.796 290.848 187.659 291.289 187.385 291.681C187.112 292.072 186.723 292.382 186.22 292.61C185.728 292.828 185.159 292.937 184.513 292.937Z"/>
<path d="M198.11 287.977C198.11 288.26 198.094 288.559 198.061 288.874H190.872C190.927 289.755 191.228 290.446 191.775 290.946C192.333 291.436 193.006 291.681 193.794 291.681C194.439 291.681 194.976 291.534 195.402 291.24C195.84 290.935 196.146 290.533 196.321 290.033H197.93C197.689 290.892 197.208 291.593 196.486 292.137C195.763 292.67 194.866 292.937 193.794 292.937C192.94 292.937 192.174 292.746 191.496 292.366C190.829 291.985 190.303 291.447 189.92 290.751C189.537 290.044 189.346 289.228 189.346 288.303C189.346 287.379 189.532 286.569 189.904 285.873C190.276 285.176 190.796 284.643 191.463 284.274C192.142 283.893 192.919 283.703 193.794 283.703C194.647 283.703 195.402 283.888 196.059 284.257C196.715 284.627 197.219 285.138 197.569 285.791C197.93 286.433 198.11 287.161 198.11 287.977ZM196.568 287.667C196.568 287.102 196.442 286.618 196.19 286.215C195.938 285.802 195.594 285.492 195.156 285.285C194.729 285.068 194.253 284.959 193.728 284.959C192.973 284.959 192.328 285.198 191.791 285.677C191.266 286.155 190.965 286.819 190.889 287.667H196.568Z"/>
</mask>
<path d="M121.9 287.096C121.9 285.987 122.151 284.992 122.655 284.111C123.158 283.219 123.842 282.523 124.706 282.022C125.582 281.522 126.55 281.272 127.611 281.272C128.859 281.272 129.947 281.571 130.877 282.169C131.808 282.767 132.486 283.616 132.913 284.714H131.124C130.806 284.029 130.347 283.501 129.745 283.132C129.154 282.762 128.443 282.577 127.611 282.577C126.813 282.577 126.096 282.762 125.461 283.132C124.827 283.501 124.329 284.029 123.968 284.714C123.607 285.389 123.426 286.182 123.426 287.096C123.426 287.999 123.607 288.793 123.968 289.478C124.329 290.152 124.827 290.674 125.461 291.044C126.096 291.414 126.813 291.599 127.611 291.599C128.443 291.599 129.154 291.419 129.745 291.061C130.347 290.691 130.806 290.163 131.124 289.478H132.913C132.486 290.566 131.808 291.409 130.877 292.007C129.947 292.594 128.859 292.888 127.611 292.888C126.55 292.888 125.582 292.643 124.706 292.154C123.842 291.653 123.158 290.963 122.655 290.082C122.151 289.201 121.9 288.206 121.9 287.096Z" fill="black"/>
<path d="M139.059 292.937C138.216 292.937 137.45 292.746 136.761 292.366C136.082 291.985 135.546 291.447 135.152 290.751C134.769 290.044 134.578 289.228 134.578 288.303C134.578 287.39 134.775 286.585 135.169 285.889C135.574 285.182 136.121 284.643 136.81 284.274C137.499 283.893 138.271 283.703 139.124 283.703C139.978 283.703 140.749 283.893 141.438 284.274C142.128 284.643 142.669 285.176 143.063 285.873C143.468 286.569 143.671 287.379 143.671 288.303C143.671 289.228 143.463 290.044 143.047 290.751C142.642 291.447 142.089 291.985 141.389 292.366C140.689 292.746 139.912 292.937 139.059 292.937ZM139.059 291.632C139.595 291.632 140.098 291.506 140.569 291.256C141.039 291.006 141.417 290.631 141.701 290.131C141.996 289.63 142.144 289.021 142.144 288.303C142.144 287.586 142.002 286.976 141.717 286.476C141.433 285.976 141.061 285.606 140.601 285.367C140.142 285.117 139.644 284.992 139.108 284.992C138.561 284.992 138.057 285.117 137.598 285.367C137.149 285.606 136.788 285.976 136.515 286.476C136.241 286.976 136.104 287.586 136.104 288.303C136.104 289.032 136.236 289.647 136.498 290.147C136.772 290.647 137.133 291.022 137.581 291.273C138.03 291.512 138.522 291.632 139.059 291.632Z" fill="black"/>
<path d="M146.406 282.398C146.121 282.398 145.881 282.3 145.684 282.104C145.487 281.908 145.388 281.669 145.388 281.386C145.388 281.103 145.487 280.864 145.684 280.668C145.881 280.472 146.121 280.375 146.406 280.375C146.679 280.375 146.909 280.472 147.095 280.668C147.292 280.864 147.391 281.103 147.391 281.386C147.391 281.669 147.292 281.908 147.095 282.104C146.909 282.3 146.679 282.398 146.406 282.398ZM147.128 283.85V292.79H145.634V283.85H147.128Z" fill="black"/>
<path d="M154.056 283.686C155.15 283.686 156.036 284.018 156.715 284.682C157.393 285.334 157.732 286.28 157.732 287.52V292.79H156.255V287.732C156.255 286.841 156.031 286.161 155.582 285.693C155.133 285.214 154.521 284.975 153.744 284.975C152.956 284.975 152.327 285.22 151.856 285.709C151.397 286.199 151.167 286.911 151.167 287.847V292.79H149.673V283.85H151.167V285.122C151.462 284.665 151.862 284.312 152.365 284.062C152.879 283.811 153.443 283.686 154.056 283.686Z" fill="black"/>
<path d="M165.9 286.933C166.316 286.998 166.693 287.167 167.032 287.439C167.383 287.711 167.656 288.048 167.853 288.45C168.061 288.853 168.165 289.282 168.165 289.739C168.165 290.316 168.017 290.838 167.722 291.305C167.426 291.762 166.994 292.126 166.425 292.398C165.867 292.659 165.205 292.79 164.439 292.79H160.172V281.419H164.275C165.052 281.419 165.714 281.549 166.261 281.81C166.808 282.06 167.218 282.403 167.492 282.838C167.766 283.273 167.902 283.763 167.902 284.306C167.902 284.981 167.716 285.541 167.344 285.987C166.983 286.422 166.502 286.737 165.9 286.933ZM161.665 286.329H164.177C164.877 286.329 165.418 286.166 165.801 285.84C166.184 285.514 166.376 285.062 166.376 284.486C166.376 283.909 166.184 283.458 165.801 283.132C165.418 282.805 164.866 282.642 164.144 282.642H161.665V286.329ZM164.308 291.566C165.052 291.566 165.632 291.392 166.048 291.044C166.463 290.696 166.671 290.212 166.671 289.592C166.671 288.961 166.452 288.467 166.015 288.108C165.577 287.738 164.992 287.553 164.259 287.553H161.665V291.566H164.308Z" fill="black"/>
<path d="M169.679 288.287C169.679 287.373 169.866 286.574 170.238 285.889C170.61 285.193 171.118 284.654 171.764 284.274C172.42 283.893 173.148 283.703 173.947 283.703C174.735 283.703 175.418 283.871 175.998 284.208C176.578 284.546 177.011 284.97 177.295 285.481V283.85H178.805V292.79H177.295V291.126C177 291.648 176.556 292.083 175.966 292.431C175.386 292.768 174.707 292.937 173.93 292.937C173.132 292.937 172.409 292.741 171.764 292.349C171.118 291.958 170.61 291.409 170.238 290.702C169.866 289.995 169.679 289.19 169.679 288.287ZM177.295 288.303C177.295 287.629 177.158 287.042 176.885 286.541C176.611 286.041 176.239 285.66 175.769 285.399C175.309 285.127 174.8 284.992 174.242 284.992C173.684 284.992 173.175 285.122 172.716 285.383C172.256 285.644 171.89 286.025 171.616 286.525C171.343 287.025 171.206 287.613 171.206 288.287C171.206 288.972 171.343 289.57 171.616 290.082C171.89 290.582 172.256 290.968 172.716 291.24C173.175 291.501 173.684 291.632 174.242 291.632C174.8 291.632 175.309 291.501 175.769 291.24C176.239 290.968 176.611 290.582 176.885 290.082C177.158 289.57 177.295 288.978 177.295 288.303Z" fill="black"/>
<path d="M184.513 292.937C183.824 292.937 183.206 292.823 182.658 292.594C182.111 292.355 181.679 292.029 181.362 291.615C181.044 291.191 180.869 290.707 180.837 290.163H182.379C182.423 290.609 182.631 290.974 183.003 291.256C183.386 291.539 183.884 291.681 184.497 291.681C185.066 291.681 185.514 291.555 185.842 291.305C186.171 291.055 186.335 290.74 186.335 290.359C186.335 289.967 186.16 289.679 185.81 289.494C185.46 289.299 184.918 289.108 184.185 288.923C183.517 288.749 182.97 288.575 182.544 288.401C182.128 288.216 181.767 287.95 181.46 287.602C181.165 287.243 181.017 286.775 181.017 286.199C181.017 285.742 181.154 285.323 181.427 284.943C181.701 284.562 182.089 284.263 182.593 284.045C183.096 283.817 183.671 283.703 184.316 283.703C185.312 283.703 186.116 283.953 186.729 284.453C187.342 284.953 187.67 285.639 187.714 286.509H186.22C186.187 286.041 185.996 285.666 185.646 285.383C185.306 285.1 184.847 284.959 184.267 284.959C183.731 284.959 183.304 285.073 182.987 285.302C182.669 285.53 182.511 285.829 182.511 286.199C182.511 286.492 182.604 286.737 182.79 286.933C182.987 287.118 183.227 287.27 183.512 287.39C183.807 287.499 184.212 287.624 184.726 287.765C185.372 287.939 185.897 288.113 186.302 288.287C186.707 288.45 187.052 288.7 187.336 289.038C187.632 289.375 187.785 289.815 187.796 290.359C187.796 290.848 187.659 291.289 187.385 291.681C187.112 292.072 186.723 292.382 186.22 292.61C185.728 292.828 185.159 292.937 184.513 292.937Z" fill="black"/>
<path d="M198.11 287.977C198.11 288.26 198.094 288.559 198.061 288.874H190.872C190.927 289.755 191.228 290.446 191.775 290.946C192.333 291.436 193.006 291.681 193.794 291.681C194.439 291.681 194.976 291.534 195.402 291.24C195.84 290.935 196.146 290.533 196.321 290.033H197.93C197.689 290.892 197.208 291.593 196.486 292.137C195.763 292.67 194.866 292.937 193.794 292.937C192.94 292.937 192.174 292.746 191.496 292.366C190.829 291.985 190.303 291.447 189.92 290.751C189.537 290.044 189.346 289.228 189.346 288.303C189.346 287.379 189.532 286.569 189.904 285.873C190.276 285.176 190.796 284.643 191.463 284.274C192.142 283.893 192.919 283.703 193.794 283.703C194.647 283.703 195.402 283.888 196.059 284.257C196.715 284.627 197.219 285.138 197.569 285.791C197.93 286.433 198.11 287.161 198.11 287.977ZM196.568 287.667C196.568 287.102 196.442 286.618 196.19 286.215C195.938 285.802 195.594 285.492 195.156 285.285C194.729 285.068 194.253 284.959 193.728 284.959C192.973 284.959 192.328 285.198 191.791 285.677C191.266 286.155 190.965 286.819 190.889 287.667H196.568Z" fill="black"/>
<path d="M121.9 287.096C121.9 285.987 122.151 284.992 122.655 284.111C123.158 283.219 123.842 282.523 124.706 282.022C125.582 281.522 126.55 281.272 127.611 281.272C128.859 281.272 129.947 281.571 130.877 282.169C131.808 282.767 132.486 283.616 132.913 284.714H131.124C130.806 284.029 130.347 283.501 129.745 283.132C129.154 282.762 128.443 282.577 127.611 282.577C126.813 282.577 126.096 282.762 125.461 283.132C124.827 283.501 124.329 284.029 123.968 284.714C123.607 285.389 123.426 286.182 123.426 287.096C123.426 287.999 123.607 288.793 123.968 289.478C124.329 290.152 124.827 290.674 125.461 291.044C126.096 291.414 126.813 291.599 127.611 291.599C128.443 291.599 129.154 291.419 129.745 291.061C130.347 290.691 130.806 290.163 131.124 289.478H132.913C132.486 290.566 131.808 291.409 130.877 292.007C129.947 292.594 128.859 292.888 127.611 292.888C126.55 292.888 125.582 292.643 124.706 292.154C123.842 291.653 123.158 290.963 122.655 290.082C122.151 289.201 121.9 288.206 121.9 287.096Z" stroke="black" stroke-width="0.4" mask="url(#path-16-outside-1)"/>
<path d="M139.059 292.937C138.216 292.937 137.45 292.746 136.761 292.366C136.082 291.985 135.546 291.447 135.152 290.751C134.769 290.044 134.578 289.228 134.578 288.303C134.578 287.39 134.775 286.585 135.169 285.889C135.574 285.182 136.121 284.643 136.81 284.274C137.499 283.893 138.271 283.703 139.124 283.703C139.978 283.703 140.749 283.893 141.438 284.274C142.128 284.643 142.669 285.176 143.063 285.873C143.468 286.569 143.671 287.379 143.671 288.303C143.671 289.228 143.463 290.044 143.047 290.751C142.642 291.447 142.089 291.985 141.389 292.366C140.689 292.746 139.912 292.937 139.059 292.937ZM139.059 291.632C139.595 291.632 140.098 291.506 140.569 291.256C141.039 291.006 141.417 290.631 141.701 290.131C141.996 289.63 142.144 289.021 142.144 288.303C142.144 287.586 142.002 286.976 141.717 286.476C141.433 285.976 141.061 285.606 140.601 285.367C140.142 285.117 139.644 284.992 139.108 284.992C138.561 284.992 138.057 285.117 137.598 285.367C137.149 285.606 136.788 285.976 136.515 286.476C136.241 286.976 136.104 287.586 136.104 288.303C136.104 289.032 136.236 289.647 136.498 290.147C136.772 290.647 137.133 291.022 137.581 291.273C138.03 291.512 138.522 291.632 139.059 291.632Z" stroke="black" stroke-width="0.4" mask="url(#path-16-outside-1)"/>
<path d="M146.406 282.398C146.121 282.398 145.881 282.3 145.684 282.104C145.487 281.908 145.388 281.669 145.388 281.386C145.388 281.103 145.487 280.864 145.684 280.668C145.881 280.472 146.121 280.375 146.406 280.375C146.679 280.375 146.909 280.472 147.095 280.668C147.292 280.864 147.391 281.103 147.391 281.386C147.391 281.669 147.292 281.908 147.095 282.104C146.909 282.3 146.679 282.398 146.406 282.398ZM147.128 283.85V292.79H145.634V283.85H147.128Z" stroke="black" stroke-width="0.4" mask="url(#path-16-outside-1)"/>
<path d="M154.056 283.686C155.15 283.686 156.036 284.018 156.715 284.682C157.393 285.334 157.732 286.28 157.732 287.52V292.79H156.255V287.732C156.255 286.841 156.031 286.161 155.582 285.693C155.133 285.214 154.521 284.975 153.744 284.975C152.956 284.975 152.327 285.22 151.856 285.709C151.397 286.199 151.167 286.911 151.167 287.847V292.79H149.673V283.85H151.167V285.122C151.462 284.665 151.862 284.312 152.365 284.062C152.879 283.811 153.443 283.686 154.056 283.686Z" stroke="black" stroke-width="0.4" mask="url(#path-16-outside-1)"/>
<path d="M165.9 286.933C166.316 286.998 166.693 287.167 167.032 287.439C167.383 287.711 167.656 288.048 167.853 288.45C168.061 288.853 168.165 289.282 168.165 289.739C168.165 290.316 168.017 290.838 167.722 291.305C167.426 291.762 166.994 292.126 166.425 292.398C165.867 292.659 165.205 292.79 164.439 292.79H160.172V281.419H164.275C165.052 281.419 165.714 281.549 166.261 281.81C166.808 282.06 167.218 282.403 167.492 282.838C167.766 283.273 167.902 283.763 167.902 284.306C167.902 284.981 167.716 285.541 167.344 285.987C166.983 286.422 166.502 286.737 165.9 286.933ZM161.665 286.329H164.177C164.877 286.329 165.418 286.166 165.801 285.84C166.184 285.514 166.376 285.062 166.376 284.486C166.376 283.909 166.184 283.458 165.801 283.132C165.418 282.805 164.866 282.642 164.144 282.642H161.665V286.329ZM164.308 291.566C165.052 291.566 165.632 291.392 166.048 291.044C166.463 290.696 166.671 290.212 166.671 289.592C166.671 288.961 166.452 288.467 166.015 288.108C165.577 287.738 164.992 287.553 164.259 287.553H161.665V291.566H164.308Z" stroke="black" stroke-width="0.4" mask="url(#path-16-outside-1)"/>
<path d="M169.679 288.287C169.679 287.373 169.866 286.574 170.238 285.889C170.61 285.193 171.118 284.654 171.764 284.274C172.42 283.893 173.148 283.703 173.947 283.703C174.735 283.703 175.418 283.871 175.998 284.208C176.578 284.546 177.011 284.97 177.295 285.481V283.85H178.805V292.79H177.295V291.126C177 291.648 176.556 292.083 175.966 292.431C175.386 292.768 174.707 292.937 173.93 292.937C173.132 292.937 172.409 292.741 171.764 292.349C171.118 291.958 170.61 291.409 170.238 290.702C169.866 289.995 169.679 289.19 169.679 288.287ZM177.295 288.303C177.295 287.629 177.158 287.042 176.885 286.541C176.611 286.041 176.239 285.66 175.769 285.399C175.309 285.127 174.8 284.992 174.242 284.992C173.684 284.992 173.175 285.122 172.716 285.383C172.256 285.644 171.89 286.025 171.616 286.525C171.343 287.025 171.206 287.613 171.206 288.287C171.206 288.972 171.343 289.57 171.616 290.082C171.89 290.582 172.256 290.968 172.716 291.24C173.175 291.501 173.684 291.632 174.242 291.632C174.8 291.632 175.309 291.501 175.769 291.24C176.239 290.968 176.611 290.582 176.885 290.082C177.158 289.57 177.295 288.978 177.295 288.303Z" stroke="black" stroke-width="0.4" mask="url(#path-16-outside-1)"/>
<path d="M184.513 292.937C183.824 292.937 183.206 292.823 182.658 292.594C182.111 292.355 181.679 292.029 181.362 291.615C181.044 291.191 180.869 290.707 180.837 290.163H182.379C182.423 290.609 182.631 290.974 183.003 291.256C183.386 291.539 183.884 291.681 184.497 291.681C185.066 291.681 185.514 291.555 185.842 291.305C186.171 291.055 186.335 290.74 186.335 290.359C186.335 289.967 186.16 289.679 185.81 289.494C185.46 289.299 184.918 289.108 184.185 288.923C183.517 288.749 182.97 288.575 182.544 288.401C182.128 288.216 181.767 287.95 181.46 287.602C181.165 287.243 181.017 286.775 181.017 286.199C181.017 285.742 181.154 285.323 181.427 284.943C181.701 284.562 182.089 284.263 182.593 284.045C183.096 283.817 183.671 283.703 184.316 283.703C185.312 283.703 186.116 283.953 186.729 284.453C187.342 284.953 187.67 285.639 187.714 286.509H186.22C186.187 286.041 185.996 285.666 185.646 285.383C185.306 285.1 184.847 284.959 184.267 284.959C183.731 284.959 183.304 285.073 182.987 285.302C182.669 285.53 182.511 285.829 182.511 286.199C182.511 286.492 182.604 286.737 182.79 286.933C182.987 287.118 183.227 287.27 183.512 287.39C183.807 287.499 184.212 287.624 184.726 287.765C185.372 287.939 185.897 288.113 186.302 288.287C186.707 288.45 187.052 288.7 187.336 289.038C187.632 289.375 187.785 289.815 187.796 290.359C187.796 290.848 187.659 291.289 187.385 291.681C187.112 292.072 186.723 292.382 186.22 292.61C185.728 292.828 185.159 292.937 184.513 292.937Z" stroke="black" stroke-width="0.4" mask="url(#path-16-outside-1)"/>
<path d="M198.11 287.977C198.11 288.26 198.094 288.559 198.061 288.874H190.872C190.927 289.755 191.228 290.446 191.775 290.946C192.333 291.436 193.006 291.681 193.794 291.681C194.439 291.681 194.976 291.534 195.402 291.24C195.84 290.935 196.146 290.533 196.321 290.033H197.93C197.689 290.892 197.208 291.593 196.486 292.137C195.763 292.67 194.866 292.937 193.794 292.937C192.94 292.937 192.174 292.746 191.496 292.366C190.829 291.985 190.303 291.447 189.92 290.751C189.537 290.044 189.346 289.228 189.346 288.303C189.346 287.379 189.532 286.569 189.904 285.873C190.276 285.176 190.796 284.643 191.463 284.274C192.142 283.893 192.919 283.703 193.794 283.703C194.647 283.703 195.402 283.888 196.059 284.257C196.715 284.627 197.219 285.138 197.569 285.791C197.93 286.433 198.11 287.161 198.11 287.977ZM196.568 287.667C196.568 287.102 196.442 286.618 196.19 286.215C195.938 285.802 195.594 285.492 195.156 285.285C194.729 285.068 194.253 284.959 193.728 284.959C192.973 284.959 192.328 285.198 191.791 285.677C191.266 286.155 190.965 286.819 190.889 287.667H196.568Z" stroke="black" stroke-width="0.4" mask="url(#path-16-outside-1)"/>
<path d="M105.054 294.612H112.382C113.96 294.612 115.201 293.184 115.201 291.518C115.201 289.852 113.96 288.423 112.382 288.423C111.818 288.423 111.255 288.423 110.691 288.423C112.946 283.306 111.818 272 101.672 272C94.9077 272 91.5256 276.165 91.5256 284.615H90.3982C87.918 284.615 85.8887 286.876 85.8887 289.614C85.8887 292.351 87.918 294.612 90.3982 294.612H96.0351H105.054Z" stroke="black" stroke-width="2" stroke-linecap="round" stroke-linejoin="round"/>
<path d="M101.622 283.157L99.7213 283.792L98.7732 280.954L100.644 280.329C101.033 280.199 101.446 280.226 101.81 280.403L101.81 280.403C102.173 280.58 102.441 280.885 102.568 281.264C102.694 281.642 102.663 282.047 102.479 282.407L102.479 282.407C102.3 282.758 101.997 283.023 101.622 283.157ZM97.482 281.384L97.8773 281.252L100.209 288.232L99.8136 288.364C99.5703 288.445 99.4307 288.708 99.514 288.958C99.5973 289.207 99.8671 289.334 100.11 289.252L101.766 288.699L101.894 289.083C101.977 289.332 102.247 289.459 102.491 289.377C102.734 289.296 102.873 289.033 102.79 288.784L102.662 288.4L103.04 288.274L103.168 288.657C103.251 288.907 103.521 289.033 103.764 288.952C104.008 288.87 104.147 288.607 104.064 288.358L103.935 287.974C105.324 287.493 106.083 285.999 105.621 284.616C105.276 283.584 104.351 282.912 103.322 282.824C103.606 282.266 103.676 281.602 103.463 280.964C103.112 279.914 102.106 279.269 101.042 279.312L100.882 278.834L100.882 278.834C100.799 278.585 100.529 278.458 100.286 278.54C100.043 278.621 99.9029 278.884 99.9861 279.133L100.115 279.518L99.7369 279.644L99.6084 279.26C99.6084 279.26 99.6084 279.26 99.6084 279.26C99.5251 279.01 99.2551 278.884 99.0121 278.965C98.769 279.046 98.6291 279.31 98.7124 279.559L98.8408 279.944L98.3417 280.11L98.3415 280.11L98.1044 280.189L97.1851 280.496C96.9418 280.577 96.8023 280.841 96.8855 281.09C96.9688 281.339 97.2386 281.466 97.482 281.384ZM104.624 286.226L104.624 286.226C104.413 286.639 104.053 286.947 103.608 287.096L101.105 287.932L100.018 284.681L101.889 284.055C101.902 284.051 101.914 284.047 101.923 284.044L102.522 283.844C102.967 283.695 103.44 283.726 103.856 283.929L103.857 283.929C104.273 284.132 104.58 284.482 104.725 284.915C104.87 285.349 104.835 285.813 104.624 286.226Z" fill="black" stroke="black" stroke-width="0.5"/>
<defs>
<linearGradient id="paint0_linear" x1="153.807" y1="-65.7121" x2="218.387" y2="868.67" gradientUnits="userSpaceOnUse">
<stop stop-color="#FD749B"/>
<stop offset="1" stop-color="#281AC8"/>
</linearGradient>
</defs>
</svg>
