<svg width="100" height="100" viewBox="0 0 100 100" fill="none" xmlns="http://www.w3.org/2000/svg">
<path d="M66.3504 72.9353L74.5536 34.2634C74.8884 32.6265 74.6931 31.4546 73.9676 30.7478C73.2422 30.0409 72.2842 29.9107 71.0938 30.3571L22.8795 48.9397C21.8006 49.349 21.0658 49.814 20.6752 50.3348C20.2846 50.8557 20.2381 51.3486 20.5357 51.8136C20.8333 52.2786 21.4286 52.6414 22.3214 52.9018L34.654 56.7522L63.2812 38.7277C64.0625 38.2068 64.6577 38.0952 65.067 38.3929C65.3274 38.5789 65.253 38.8579 64.8438 39.2299L41.6853 60.1562L40.7924 72.8795C41.6481 72.8795 42.4851 72.4702 43.3036 71.6518L49.3304 65.8482L61.8304 75.0558C64.2113 76.3951 65.718 75.6882 66.3504 72.9353ZM100 50C100 56.7708 98.6793 63.244 96.0379 69.4196C93.3966 75.5952 89.8437 80.9152 85.3795 85.3795C80.9152 89.8437 75.5952 93.3966 69.4196 96.0379C63.244 98.6793 56.7708 100 50 100C43.2292 100 36.756 98.6793 30.5804 96.0379C24.4048 93.3966 19.0848 89.8437 14.6205 85.3795C10.1562 80.9152 6.60342 75.5952 3.96205 69.4196C1.32068 63.244 0 56.7708 0 50C0 43.2292 1.32068 36.756 3.96205 30.5804C6.60342 24.4048 10.1562 19.0848 14.6205 14.6205C19.0848 10.1562 24.4048 6.60342 30.5804 3.96205C36.756 1.32068 43.2292 0 50 0C56.7708 0 63.244 1.32068 69.4196 3.96205C75.5952 6.60342 80.9152 10.1562 85.3795 14.6205C89.8437 19.0848 93.3966 24.4048 96.0379 30.5804C98.6793 36.756 100 43.2292 100 50Z" fill="url(#paint0_linear)"/>
<defs>
<linearGradient id="paint0_linear" x1="50" y1="0" x2="50" y2="100" gradientUnits="userSpaceOnUse">
<stop stop-color="#0088FE"/>
<stop offset="1" stop-color="#26D7D4"/>
</linearGradient>
</defs>
</svg>
