<svg width="100" height="100" viewBox="0 0 100 100" fill="none" xmlns="http://www.w3.org/2000/svg">
<path d="M58.349 49.1302L46.651 43.6719C45.6302 43.1979 44.7917 43.7292 44.7917 44.8594V55.1406C44.7917 56.2708 45.6302 56.8021 46.651 56.3281L58.3437 50.8698C59.3698 50.3906 59.3698 49.6094 58.349 49.1302ZM50 0C22.3854 0 0 22.3854 0 50C0 77.6146 22.3854 100 50 100C77.6146 100 100 77.6146 100 50C100 22.3854 77.6146 0 50 0ZM50 70.3125C24.4063 70.3125 23.9583 68.0052 23.9583 50C23.9583 31.9948 24.4063 29.6875 50 29.6875C75.5937 29.6875 76.0417 31.9948 76.0417 50C76.0417 68.0052 75.5937 70.3125 50 70.3125Z" fill="url(#paint0_linear)"/>
<defs>
<linearGradient id="paint0_linear" x1="50" y1="0" x2="50" y2="100" gradientUnits="userSpaceOnUse">
<stop stop-color="#FD749B"/>
<stop offset="0.9999" stop-color="#321AC8" stop-opacity="0.93"/>
<stop offset="1" stop-opacity="0"/>
</linearGradient>
</defs>
</svg>
